<?xml version="1.0" standalone="no"?>
<!DOCTYPE svg PUBLIC "-//W3C//DTD SVG 20010904//EN"
 "http://www.w3.org/TR/2001/REC-SVG-20010904/DTD/svg10.dtd">
<svg version="1.0" xmlns="http://www.w3.org/2000/svg"
 width="501.000000pt" height="501.000000pt" viewBox="0 0 501.000000 501.000000"
 preserveAspectRatio="xMidYMid meet">

<g transform="translate(0.000000,501.000000) scale(0.100000,-0.100000)"
fill="#000000" stroke="none">
<path d="M1880 3527 c105 -32 175 -72 245 -142 106 -106 165 -248 165 -400 0
-149 -48 -269 -152 -381 l-63 -67 44 24 c24 13 76 56 115 94 173 170 213 402
103 609 -87 165 -293 287 -482 285 l-50 0 75 -22z"/>
<path d="M2230 3516 c0 -3 19 -15 43 -27 63 -33 179 -154 216 -226 98 -194 76
-415 -58 -593 -47 -63 -147 -143 -209 -166 -58 -23 -48 -26 23 -8 134 35 274
137 338 247 141 240 72 539 -160 693 -63 41 -193 96 -193 80z"/>
<path d="M1525 3423 c-55 -7 -138 -34 -197 -64 -68 -35 -75 -44 -15 -22 57 21
227 29 300 13 187 -39 356 -200 412 -394 23 -80 17 -238 -13 -319 -11 -31 -17
-55 -13 -53 15 10 72 132 86 186 18 69 19 209 1 275 -67 250 -306 412 -561
378z"/>
<path d="M1250 3281 c-128 -41 -234 -120 -304 -225 -20 -30 -36 -56 -36 -58 0
-2 26 21 58 52 216 205 559 200 774 -11 77 -75 130 -174 149 -274 16 -90 22
-81 17 25 -12 231 -142 414 -346 486 -85 30 -228 32 -312 5z"/>
<path d="M1137 3065 c-177 -49 -323 -199 -372 -385 -8 -30 -15 -71 -15 -90 0
-34 1 -33 24 22 75 183 232 313 426 354 201 42 426 -49 538 -219 32 -48 38
-42 14 14 -48 110 -159 222 -267 270 -112 49 -245 62 -348 34z"/>
<path d="M1156 2829 c-74 -17 -166 -70 -225 -127 -155 -152 -197 -405 -100
-607 19 -38 27 -49 23 -30 -19 99 -25 157 -18 210 33 289 270 501 559 498 83
-1 118 -8 230 -48 11 -3 -5 10 -35 29 -85 56 -192 86 -303 85 -51 -1 -109 -5
-131 -10z"/>
<path d="M1320 2634 c-376 -100 -518 -530 -272 -827 38 -46 147 -137 166 -137
4 0 -15 25 -42 55 -192 210 -186 550 14 749 84 83 166 125 291 151 43 9 79 18
82 21 11 11 -190 1 -239 -12z"/>
<path d="M1531 2504 c-366 -98 -491 -537 -227 -798 37 -36 89 -74 127 -93 90
-44 126 -53 69 -16 -183 119 -277 347 -225 546 39 151 137 273 270 338 83 40
79 48 -14 23z"/>
<path d="M1780 2172 c-108 -54 -108 -219 0 -275 38 -20 112 -19 163 1 26 11
27 15 27 77 l0 65 -55 0 c-42 0 -55 -3 -55 -15 0 -11 11 -15 40 -15 l40 0 0
-40 c0 -35 -4 -42 -27 -51 -47 -18 -112 -5 -145 28 -57 57 -43 164 25 199 29
16 96 15 145 -1 16 -5 22 -3 22 8 0 36 -121 49 -180 19z"/>
<path d="M2090 2168 c-56 -38 -73 -70 -73 -133 0 -60 16 -91 66 -129 38 -28
122 -33 167 -8 108 59 108 220 0 274 -50 25 -119 23 -160 -4z m151 -25 c66
-39 77 -140 21 -195 -55 -56 -156 -45 -195 21 -34 58 -14 146 41 175 37 20 98
20 133 -1z"/>
<path d="M2387 2183 c-4 -3 -7 -71 -7 -150 0 -136 1 -143 20 -143 18 0 20 8
22 125 l3 125 48 -70 c26 -39 52 -70 56 -70 4 0 30 33 57 73 l49 72 3 -127 c2
-105 5 -128 17 -128 13 0 15 25 15 151 0 150 0 150 -22 147 -15 -2 -38 -26
-68 -70 -25 -37 -48 -67 -51 -68 -3 0 -27 32 -53 70 -44 64 -70 83 -89 63z"/>
<path d="M2737 2183 c-4 -3 -7 -71 -7 -150 l0 -143 101 0 c76 0 100 3 97 13
-3 8 -31 13 -81 15 l-77 3 0 54 0 55 71 0 c52 0 70 3 67 13 -3 7 -29 13 -71
15 l-67 3 0 49 0 50 75 0 c60 0 75 3 75 15 0 12 -16 15 -88 15 -49 0 -92 -3
-95 -7z"/>
<path d="M3005 2165 c-27 -27 -33 -71 -12 -98 7 -10 39 -25 72 -33 33 -9 66
-20 73 -26 22 -18 14 -66 -13 -84 -24 -16 -37 -16 -129 -2 -32 5 -29 -19 5
-31 71 -25 151 -6 175 41 32 62 -9 118 -96 132 -62 10 -87 47 -54 80 18 18 76
21 106 5 16 -8 22 -8 29 2 12 20 -27 38 -84 39 -38 0 -53 -5 -72 -25z"/>
</g>
</svg>
